# xmcd
#
# Track frame offsets:
#	150
#	17292
#	33920
#	50735
#	65545
#	81567
#	100220
#	116762
#	132522
#	155887
#	168970
#	182557
#	197960
#
# Disc length: 2842 seconds
#
# Revision: 1
# Processed by: cddbd v1.5.2PL0 Copyright (c) Steve Scherf et al.
# Submitted via: audiograbber 1.83.01
#
DISCID=b60b180d
DTITLE=Eden's Edge - Eden's Edge (Special Edition)
DYEAR=2012
DGENRE=Country
TTITLE0=Amen
TTITLE1=Swingin' Door
TTITLE2=Skinny Dippin'
TTITLE3=Too Good to Be True
TTITLE4=Last Supper
TTITLE5=Feels So Real
TTITLE6=Who Am I Drinking Tonight?
TTITLE7=Liar
TTITLE8=Cherry Pie
TTITLE9=Christ Alone
TTITLE10=Roots
TTITLE11=Little Bird
TTITLE12=Wherever I Go
EXTD=Special Cracker Barrell Edition has 3 extra songs.
EXTT0=
EXTT1=
EXTT2=
EXTT3=
EXTT4=
EXTT5=
EXTT6=
EXTT7=
EXTT8=
EXTT9=
EXTT10=
EXTT11=
EXTT12=
PLAYORDER=
